<mxfile host="app.diagrams.net" modified="2024-03-15T17:09:10.101Z" agent="Mozilla/5.0 (Windows NT 10.0; Win64; x64) AppleWebKit/537.36 (KHTML, like Gecko) Chrome/122.0.0.0 Safari/537.36" etag="o_r9yRLBMq_iog2TxsMz" version="24.0.5" type="device">
  <diagram name="Page-1" id="8xsfMNI_2PLr7g7BhxxV">
    <mxGraphModel dx="2625" dy="4605" grid="0" gridSize="10" guides="1" tooltips="1" connect="1" arrows="1" fold="1" page="1" pageScale="1" pageWidth="2339" pageHeight="3300" math="0" shadow="0">
      <root>
        <mxCell id="0" />
        <mxCell id="1" parent="0" />
        <mxCell id="Ep6wm1nC07nQk0jGkavb-5" value="&lt;font face=&quot;Times New Roman&quot;&gt;Country&lt;/font&gt;" style="swimlane;fontStyle=1;align=center;verticalAlign=top;childLayout=stackLayout;horizontal=1;startSize=26;horizontalStack=0;resizeParent=1;resizeParentMax=0;resizeLast=0;collapsible=1;marginBottom=0;whiteSpace=wrap;html=1;rounded=1;" parent="1" vertex="1">
          <mxGeometry x="28" y="85" width="240" height="291" as="geometry" />
        </mxCell>
        <mxCell id="Ep6wm1nC07nQk0jGkavb-6" value="&lt;font face=&quot;Times New Roman&quot; style=&quot;font-size: 12px;&quot;&gt;-d_id: int&lt;br&gt;-d_neighborCountries: Set&amp;lt;Country&amp;gt;&lt;br&gt;-d_armiesPresent: int&lt;br&gt;-d_continent: Continent&lt;br&gt;-d_owner: Player&lt;br&gt;&lt;/font&gt;&lt;font face=&quot;Times New Roman&quot; style=&quot;font-size: 12px;&quot;&gt;&lt;br&gt;&lt;/font&gt;&lt;div&gt;&lt;br&gt;&lt;/div&gt;" style="text;strokeColor=none;fillColor=none;align=left;verticalAlign=top;spacingLeft=4;spacingRight=4;overflow=hidden;rotatable=0;points=[[0,0.5],[1,0.5]];portConstraint=eastwest;whiteSpace=wrap;html=1;rounded=1;" parent="Ep6wm1nC07nQk0jGkavb-5" vertex="1">
          <mxGeometry y="26" width="240" height="85" as="geometry" />
        </mxCell>
        <mxCell id="Ep6wm1nC07nQk0jGkavb-7" value="" style="line;strokeWidth=1;fillColor=none;align=left;verticalAlign=middle;spacingTop=-1;spacingLeft=3;spacingRight=3;rotatable=0;labelPosition=right;points=[];portConstraint=eastwest;strokeColor=inherit;rounded=1;" parent="Ep6wm1nC07nQk0jGkavb-5" vertex="1">
          <mxGeometry y="111" width="240" height="8" as="geometry" />
        </mxCell>
        <mxCell id="Ep6wm1nC07nQk0jGkavb-8" value="&lt;font face=&quot;Times New Roman&quot;&gt;+setPlayer(): void&lt;br&gt;+getPlayer(): Player&lt;br&gt;+placeArmies(): void&lt;br&gt;+removeArmies(): void&lt;br&gt;+getId(): int&lt;br&gt;+getNeighborCountries(): Set&amp;lt;Country&amp;gt;&lt;br&gt;+addNeighbor(): void&lt;br&gt;+getNumberOfArmiesPresent(): int&lt;br&gt;+getContinent(): Continent&lt;br&gt;+removeNeighbor(): boolean&lt;br&gt;+getNeighborIds(): Set&amp;lt;Integer&amp;gt;&lt;/font&gt;&lt;div&gt;&lt;br&gt;&lt;/div&gt;" style="text;strokeColor=none;fillColor=none;align=left;verticalAlign=top;spacingLeft=4;spacingRight=4;overflow=hidden;rotatable=0;points=[[0,0.5],[1,0.5]];portConstraint=eastwest;whiteSpace=wrap;html=1;rounded=1;" parent="Ep6wm1nC07nQk0jGkavb-5" vertex="1">
          <mxGeometry y="119" width="240" height="172" as="geometry" />
        </mxCell>
        <mxCell id="Ep6wm1nC07nQk0jGkavb-13" value="&lt;font face=&quot;Times New Roman&quot;&gt;Continent&lt;/font&gt;" style="swimlane;fontStyle=1;align=center;verticalAlign=top;childLayout=stackLayout;horizontal=1;startSize=26;horizontalStack=0;resizeParent=1;resizeParentMax=0;resizeLast=0;collapsible=1;marginBottom=0;whiteSpace=wrap;html=1;rounded=1;" parent="1" vertex="1">
          <mxGeometry x="299" y="85" width="230" height="189" as="geometry" />
        </mxCell>
        <mxCell id="Ep6wm1nC07nQk0jGkavb-14" value="&lt;font face=&quot;Times New Roman&quot;&gt;-d_id: int&lt;br style=&quot;border-color: var(--border-color);&quot;&gt;-d_controlValue: int&lt;br style=&quot;border-color: var(--border-color);&quot;&gt;-d_countriesSet: Set&amp;lt;Country&amp;gt;&lt;br&gt;&lt;/font&gt;&lt;font face=&quot;Times New Roman&quot;&gt;&lt;br&gt;&lt;/font&gt;" style="text;strokeColor=none;fillColor=none;align=left;verticalAlign=top;spacingLeft=4;spacingRight=4;overflow=hidden;rotatable=0;points=[[0,0.5],[1,0.5]];portConstraint=eastwest;whiteSpace=wrap;html=1;rounded=1;" parent="Ep6wm1nC07nQk0jGkavb-13" vertex="1">
          <mxGeometry y="26" width="230" height="53" as="geometry" />
        </mxCell>
        <mxCell id="Ep6wm1nC07nQk0jGkavb-15" value="" style="line;strokeWidth=1;fillColor=none;align=left;verticalAlign=middle;spacingTop=-1;spacingLeft=3;spacingRight=3;rotatable=0;labelPosition=right;points=[];portConstraint=eastwest;strokeColor=inherit;rounded=1;" parent="Ep6wm1nC07nQk0jGkavb-13" vertex="1">
          <mxGeometry y="79" width="230" height="8" as="geometry" />
        </mxCell>
        <mxCell id="Ep6wm1nC07nQk0jGkavb-16" value="&lt;font face=&quot;Times New Roman&quot;&gt;+addCountry(): void&lt;br&gt;+removeCountry(): void&lt;br&gt;+getId&lt;span style=&quot;font-size: 9.8pt; background-color: rgb(255, 255, 255); color: rgb(8, 8, 8);&quot;&gt;(): int&lt;/span&gt;&lt;br&gt;+getControlValue&lt;span style=&quot;font-size: 9.8pt; background-color: rgb(255, 255, 255); color: rgb(8, 8, 8);&quot;&gt;(): int&lt;/span&gt;&lt;br&gt;+getCountriesSet&lt;span style=&quot;font-size: 9.8pt; background-color: rgb(255, 255, 255); color: rgb(8, 8, 8);&quot;&gt;(): Set&amp;lt;Country&amp;gt;&lt;/span&gt;&lt;br&gt;+getCountriesIds&lt;span style=&quot;font-size: 9.8pt; background-color: rgb(255, 255, 255); color: rgb(8, 8, 8);&quot;&gt;(): Set&amp;lt;Integer&amp;gt;&lt;/span&gt;&lt;/font&gt;" style="text;strokeColor=none;fillColor=none;align=left;verticalAlign=top;spacingLeft=4;spacingRight=4;overflow=hidden;rotatable=0;points=[[0,0.5],[1,0.5]];portConstraint=eastwest;whiteSpace=wrap;html=1;rounded=1;" parent="Ep6wm1nC07nQk0jGkavb-13" vertex="1">
          <mxGeometry y="87" width="230" height="102" as="geometry" />
        </mxCell>
        <mxCell id="Ep6wm1nC07nQk0jGkavb-137" value="&lt;font face=&quot;Times New Roman&quot;&gt;GameEngine&lt;/font&gt;" style="swimlane;fontStyle=1;align=center;verticalAlign=top;childLayout=stackLayout;horizontal=1;startSize=26;horizontalStack=0;resizeParent=1;resizeParentMax=0;resizeLast=0;collapsible=1;marginBottom=0;whiteSpace=wrap;html=1;rounded=1;" parent="1" vertex="1">
          <mxGeometry x="563" y="85" width="220" height="414" as="geometry" />
        </mxCell>
        <mxCell id="Ep6wm1nC07nQk0jGkavb-138" value="&lt;div&gt;&lt;font face=&quot;Times New Roman&quot;&gt;-d_isLoadedMap: boolean&lt;/font&gt;&lt;/div&gt;&lt;div&gt;&lt;font face=&quot;KBLTEd2j-JNkcLo8t0Y6&quot;&gt;-d_isEditMap: boolean&lt;/font&gt;&lt;/div&gt;&lt;div&gt;&lt;font face=&quot;KBLTEd2j-JNkcLo8t0Y6&quot;&gt;-d_isGamePhase: boolean&lt;/font&gt;&lt;/div&gt;&lt;div&gt;&lt;font face=&quot;KBLTEd2j-JNkcLo8t0Y6&quot;&gt;-d_players: HashMap&amp;lt;String, Player&amp;gt;&lt;/font&gt;&lt;/div&gt;&lt;div&gt;&lt;font face=&quot;KBLTEd2j-JNkcLo8t0Y6&quot;&gt;-d_playerName: ArrayList&amp;lt;String&amp;gt;&lt;/font&gt;&lt;/div&gt;&lt;div&gt;&lt;font face=&quot;KBLTEd2j-JNkcLo8t0Y6&quot;&gt;-d_currentPlayer: int&lt;/font&gt;&lt;/div&gt;&lt;div&gt;&lt;font face=&quot;Times New Roman&quot;&gt;-d_gameMap: GameMap&lt;/font&gt;&lt;font face=&quot;KBLTEd2j-JNkcLo8t0Y6&quot;&gt;&lt;br&gt;&lt;/font&gt;&lt;/div&gt;" style="text;strokeColor=none;fillColor=none;align=left;verticalAlign=top;spacingLeft=4;spacingRight=4;overflow=hidden;rotatable=0;points=[[0,0.5],[1,0.5]];portConstraint=eastwest;whiteSpace=wrap;html=1;rounded=1;" parent="Ep6wm1nC07nQk0jGkavb-137" vertex="1">
          <mxGeometry y="26" width="220" height="112" as="geometry" />
        </mxCell>
        <mxCell id="Ep6wm1nC07nQk0jGkavb-139" value="" style="line;strokeWidth=1;fillColor=none;align=left;verticalAlign=middle;spacingTop=-1;spacingLeft=3;spacingRight=3;rotatable=0;labelPosition=right;points=[];portConstraint=eastwest;strokeColor=inherit;rounded=1;" parent="Ep6wm1nC07nQk0jGkavb-137" vertex="1">
          <mxGeometry y="138" width="220" height="8" as="geometry" />
        </mxCell>
        <mxCell id="Ep6wm1nC07nQk0jGkavb-140" value="&lt;div&gt;&lt;font face=&quot;Times New Roman&quot;&gt;+editMap(): String&lt;/font&gt;&lt;/div&gt;&lt;div&gt;&lt;font face=&quot;hXwpHgo_wCpGjLK0mvvF&quot;&gt;+loadMap(): String&lt;/font&gt;&lt;/div&gt;&lt;div&gt;&lt;font face=&quot;hXwpHgo_wCpGjLK0mvvF&quot;&gt;+editContinent(): String&lt;/font&gt;&lt;/div&gt;&lt;div&gt;&lt;font face=&quot;hXwpHgo_wCpGjLK0mvvF&quot;&gt;+editCountry(): String&lt;/font&gt;&lt;/div&gt;&lt;div&gt;&lt;font face=&quot;hXwpHgo_wCpGjLK0mvvF&quot;&gt;+editNeighbor(): String&lt;/font&gt;&lt;/div&gt;&lt;div&gt;&lt;font face=&quot;hXwpHgo_wCpGjLK0mvvF&quot;&gt;+saveMap(): String&lt;/font&gt;&lt;/div&gt;&lt;div&gt;&lt;font face=&quot;hXwpHgo_wCpGjLK0mvvF&quot;&gt;+gamePlayer(): String&lt;/font&gt;&lt;/div&gt;&lt;div&gt;&lt;font face=&quot;hXwpHgo_wCpGjLK0mvvF&quot;&gt;+addPlayer(): String&lt;/font&gt;&lt;/div&gt;&lt;div&gt;&lt;font face=&quot;hXwpHgo_wCpGjLK0mvvF&quot;&gt;+removePlayer(): String&lt;/font&gt;&lt;/div&gt;&lt;div&gt;&lt;font face=&quot;hXwpHgo_wCpGjLK0mvvF&quot;&gt;+getGameMap(): GameMap&lt;/font&gt;&lt;/div&gt;&lt;div&gt;&lt;font face=&quot;hXwpHgo_wCpGjLK0mvvF&quot;&gt;+validateMap(): String&lt;/font&gt;&lt;/div&gt;&lt;div&gt;&lt;font face=&quot;hXwpHgo_wCpGjLK0mvvF&quot;&gt;+deployPhase(): void&lt;/font&gt;&lt;/div&gt;&lt;div&gt;&lt;font face=&quot;hXwpHgo_wCpGjLK0mvvF&quot;&gt;+getPlayers(): HashMap&amp;lt;String, Player&amp;gt;&lt;/font&gt;&lt;/div&gt;&lt;div&gt;&lt;font face=&quot;hXwpHgo_wCpGjLK0mvvF&quot;&gt;+assignCountries(): String&lt;/font&gt;&lt;/div&gt;&lt;div&gt;&lt;font face=&quot;hXwpHgo_wCpGjLK0mvvF&quot;&gt;+checkContinentOwnership(): void&lt;/font&gt;&lt;/div&gt;&lt;div&gt;&lt;font face=&quot;hXwpHgo_wCpGjLK0mvvF&quot;&gt;+assignArmies(): void&lt;/font&gt;&lt;/div&gt;&lt;div&gt;&lt;font face=&quot;hXwpHgo_wCpGjLK0mvvF&quot;&gt;+showMap(): String&lt;/font&gt;&lt;/div&gt;" style="text;strokeColor=none;fillColor=none;align=left;verticalAlign=top;spacingLeft=4;spacingRight=4;overflow=hidden;rotatable=0;points=[[0,0.5],[1,0.5]];portConstraint=eastwest;whiteSpace=wrap;html=1;rounded=1;" parent="Ep6wm1nC07nQk0jGkavb-137" vertex="1">
          <mxGeometry y="146" width="220" height="268" as="geometry" />
        </mxCell>
        <mxCell id="Ep6wm1nC07nQk0jGkavb-143" value="&lt;font face=&quot;Times New Roman&quot;&gt;MapReader&lt;/font&gt;" style="swimlane;fontStyle=1;align=center;verticalAlign=top;childLayout=stackLayout;horizontal=1;startSize=26;horizontalStack=0;resizeParent=1;resizeParentMax=0;resizeLast=0;collapsible=1;marginBottom=0;whiteSpace=wrap;html=1;rounded=1;" parent="1" vertex="1">
          <mxGeometry x="900" y="90" width="239" height="176" as="geometry" />
        </mxCell>
        <mxCell id="Ep6wm1nC07nQk0jGkavb-144" value="&lt;font face=&quot;Times New Roman&quot;&gt;-d_continentsMap: HashMap&amp;lt;String, Integer&amp;gt;&lt;br&gt;-d_countriesMap: HashMap&amp;lt;Integer, String&amp;gt;&lt;br&gt;-d_reader: Scanner&lt;br&gt;-d_gameMap: GameMap&lt;br&gt;&lt;/font&gt;" style="text;strokeColor=none;fillColor=none;align=left;verticalAlign=top;spacingLeft=4;spacingRight=4;overflow=hidden;rotatable=0;points=[[0,0.5],[1,0.5]];portConstraint=eastwest;whiteSpace=wrap;html=1;rounded=1;" parent="Ep6wm1nC07nQk0jGkavb-143" vertex="1">
          <mxGeometry y="26" width="239" height="69" as="geometry" />
        </mxCell>
        <mxCell id="Ep6wm1nC07nQk0jGkavb-145" value="" style="line;strokeWidth=1;fillColor=none;align=left;verticalAlign=middle;spacingTop=-1;spacingLeft=3;spacingRight=3;rotatable=0;labelPosition=right;points=[];portConstraint=eastwest;strokeColor=inherit;rounded=1;" parent="Ep6wm1nC07nQk0jGkavb-143" vertex="1">
          <mxGeometry y="95" width="239" height="8" as="geometry" />
        </mxCell>
        <mxCell id="Ep6wm1nC07nQk0jGkavb-146" value="&lt;font face=&quot;Times New Roman&quot;&gt;+readFullMap(): boolean&lt;br&gt;+getContinentIds(): Set&amp;lt;Integer&amp;gt;&lt;br&gt;+getGameMap&lt;span style=&quot;font-size: 9.8pt; background-color: rgb(255, 255, 255); color: rgb(8, 8, 8);&quot;&gt;(): GameMap&lt;/span&gt;&lt;br&gt;+getCountriesIds(): Set&amp;lt;Integer&amp;gt;&lt;/font&gt;" style="text;strokeColor=none;fillColor=none;align=left;verticalAlign=top;spacingLeft=4;spacingRight=4;overflow=hidden;rotatable=0;points=[[0,0.5],[1,0.5]];portConstraint=eastwest;whiteSpace=wrap;html=1;rounded=1;" parent="Ep6wm1nC07nQk0jGkavb-143" vertex="1">
          <mxGeometry y="103" width="239" height="73" as="geometry" />
        </mxCell>
        <mxCell id="Ep6wm1nC07nQk0jGkavb-147" value="&lt;font face=&quot;Times New Roman&quot;&gt;MapWriter&lt;/font&gt;" style="swimlane;fontStyle=1;align=center;verticalAlign=top;childLayout=stackLayout;horizontal=1;startSize=26;horizontalStack=0;resizeParent=1;resizeParentMax=0;resizeLast=0;collapsible=1;marginBottom=0;whiteSpace=wrap;html=1;rounded=1;" parent="1" vertex="1">
          <mxGeometry x="1070" y="410" width="276" height="128" as="geometry" />
        </mxCell>
        <mxCell id="Ep6wm1nC07nQk0jGkavb-148" value="&lt;font face=&quot;Times New Roman&quot;&gt;-d_continentsMap: LinkedHashMap&amp;lt;Integer, Integer&amp;gt;&lt;br&gt;-d_countriesMap: LinkedHashMap&amp;lt;Integer, Integer&amp;gt;&lt;/font&gt;&lt;div&gt;&lt;font face=&quot;ZmIQn7jgMrfz9ciOP9Mu&quot;&gt;-d_writer: BufferedWriter()&lt;/font&gt;&lt;/div&gt;&lt;div&gt;&lt;font face=&quot;Times New Roman&quot;&gt;-d_gameMap: GameMap&lt;/font&gt;&lt;font face=&quot;ZmIQn7jgMrfz9ciOP9Mu&quot;&gt;&lt;br&gt;&lt;/font&gt;&lt;/div&gt;" style="text;strokeColor=none;fillColor=none;align=left;verticalAlign=top;spacingLeft=4;spacingRight=4;overflow=hidden;rotatable=0;points=[[0,0.5],[1,0.5]];portConstraint=eastwest;whiteSpace=wrap;html=1;rounded=1;" parent="Ep6wm1nC07nQk0jGkavb-147" vertex="1">
          <mxGeometry y="26" width="276" height="68" as="geometry" />
        </mxCell>
        <mxCell id="Ep6wm1nC07nQk0jGkavb-149" value="" style="line;strokeWidth=1;fillColor=none;align=left;verticalAlign=middle;spacingTop=-1;spacingLeft=3;spacingRight=3;rotatable=0;labelPosition=right;points=[];portConstraint=eastwest;strokeColor=inherit;rounded=1;" parent="Ep6wm1nC07nQk0jGkavb-147" vertex="1">
          <mxGeometry y="94" width="276" height="8" as="geometry" />
        </mxCell>
        <mxCell id="Ep6wm1nC07nQk0jGkavb-150" value="&lt;font face=&quot;Times New Roman&quot;&gt;+writeFullMap(): boolean&lt;/font&gt;" style="text;strokeColor=none;fillColor=none;align=left;verticalAlign=top;spacingLeft=4;spacingRight=4;overflow=hidden;rotatable=0;points=[[0,0.5],[1,0.5]];portConstraint=eastwest;whiteSpace=wrap;html=1;rounded=1;" parent="Ep6wm1nC07nQk0jGkavb-147" vertex="1">
          <mxGeometry y="102" width="276" height="26" as="geometry" />
        </mxCell>
        <mxCell id="Ep6wm1nC07nQk0jGkavb-151" value="&lt;font face=&quot;Times New Roman&quot;&gt;GameMap&lt;/font&gt;" style="swimlane;fontStyle=1;align=center;verticalAlign=top;childLayout=stackLayout;horizontal=1;startSize=26;horizontalStack=0;resizeParent=1;resizeParentMax=0;resizeLast=0;collapsible=1;marginBottom=0;whiteSpace=wrap;html=1;rounded=1;" parent="1" vertex="1">
          <mxGeometry x="270" y="540" width="270" height="323" as="geometry" />
        </mxCell>
        <mxCell id="Ep6wm1nC07nQk0jGkavb-152" value="&lt;font face=&quot;Times New Roman&quot;&gt;-d_continents: HashMap&amp;lt;Integer, Continent&amp;gt;&lt;br&gt;-d_countries: HashMap&amp;lt;Integer, Country&amp;gt;&lt;br&gt;-d_isValid: boolean&lt;/font&gt;&lt;font face=&quot;Times New Roman&quot;&gt;&lt;br&gt;&lt;/font&gt;" style="text;strokeColor=none;fillColor=none;align=left;verticalAlign=top;spacingLeft=4;spacingRight=4;overflow=hidden;rotatable=0;points=[[0,0.5],[1,0.5]];portConstraint=eastwest;whiteSpace=wrap;html=1;rounded=1;" parent="Ep6wm1nC07nQk0jGkavb-151" vertex="1">
          <mxGeometry y="26" width="270" height="58" as="geometry" />
        </mxCell>
        <mxCell id="Ep6wm1nC07nQk0jGkavb-153" value="" style="line;strokeWidth=1;fillColor=none;align=left;verticalAlign=middle;spacingTop=-1;spacingLeft=3;spacingRight=3;rotatable=0;labelPosition=right;points=[];portConstraint=eastwest;strokeColor=inherit;rounded=1;" parent="Ep6wm1nC07nQk0jGkavb-151" vertex="1">
          <mxGeometry y="84" width="270" height="8" as="geometry" />
        </mxCell>
        <mxCell id="Ep6wm1nC07nQk0jGkavb-154" value="&lt;font face=&quot;Times New Roman&quot;&gt;+addContinent(): String&lt;br&gt;+removeContinent(): String&lt;br&gt;+addCountry(): String&lt;br&gt;+removeCountry(): String&lt;br&gt;+addNeighbor(): String&lt;br&gt;+removeNeighbor(): String&lt;br&gt;+loadMap(): String&lt;br&gt;+showMapEdit(): String&lt;br&gt;+showMapPlay(): String&lt;br&gt;+fillCountryData(): String[]&lt;br&gt;+saveMap(): String&lt;br&gt;+validateMap(): String&lt;br&gt;+getContinents(): HashMap&amp;lt;Integer, Continent&amp;gt;&lt;br&gt;+getCountries(): HashMap&amp;lt;Integer, Country&amp;gt;&lt;br&gt;+getValidateStatus(): boolean&lt;br&gt;&lt;/font&gt;" style="text;strokeColor=none;fillColor=none;align=left;verticalAlign=top;spacingLeft=4;spacingRight=4;overflow=hidden;rotatable=0;points=[[0,0.5],[1,0.5]];portConstraint=eastwest;whiteSpace=wrap;html=1;rounded=1;" parent="Ep6wm1nC07nQk0jGkavb-151" vertex="1">
          <mxGeometry y="92" width="270" height="231" as="geometry" />
        </mxCell>
        <mxCell id="Ep6wm1nC07nQk0jGkavb-159" value="&lt;font face=&quot;Times New Roman&quot;&gt;Player&lt;/font&gt;" style="swimlane;fontStyle=1;align=center;verticalAlign=top;childLayout=stackLayout;horizontal=1;startSize=26;horizontalStack=0;resizeParent=1;resizeParentMax=0;resizeLast=0;collapsible=1;marginBottom=0;whiteSpace=wrap;html=1;rounded=1;" parent="1" vertex="1">
          <mxGeometry x="612" y="563.5" width="257" height="317" as="geometry" />
        </mxCell>
        <mxCell id="Ep6wm1nC07nQk0jGkavb-160" value="&lt;div&gt;&lt;font face=&quot;Times New Roman&quot;&gt;-d_name: String&lt;/font&gt;&lt;/div&gt;&lt;div&gt;&lt;font face=&quot;B1X6r1U6vNHwbKCejEDq&quot;&gt;-d_countries: HashMap&amp;lt;Integer, Country&amp;gt;&lt;/font&gt;&lt;/div&gt;&lt;div&gt;&lt;font face=&quot;B1X6r1U6vNHwbKCejEDq&quot;&gt;-d-continents: HashMap&amp;lt;Integer, Continent&amp;gt;&lt;/font&gt;&lt;/div&gt;&lt;div&gt;&lt;font face=&quot;B1X6r1U6vNHwbKCejEDq&quot;&gt;-d_orders: Queue&amp;lt;Orders&amp;gt;&lt;/font&gt;&lt;/div&gt;&lt;div&gt;&lt;font face=&quot;B1X6r1U6vNHwbKCejEDq&quot;&gt;-d_numberOfArmies: int&lt;/font&gt;&lt;/div&gt;&lt;div&gt;&lt;br&gt;&lt;/div&gt;" style="text;strokeColor=none;fillColor=none;align=left;verticalAlign=top;spacingLeft=4;spacingRight=4;overflow=hidden;rotatable=0;points=[[0,0.5],[1,0.5]];portConstraint=eastwest;whiteSpace=wrap;html=1;rounded=1;" parent="Ep6wm1nC07nQk0jGkavb-159" vertex="1">
          <mxGeometry y="26" width="257" height="84" as="geometry" />
        </mxCell>
        <mxCell id="Ep6wm1nC07nQk0jGkavb-161" value="" style="line;strokeWidth=1;fillColor=none;align=left;verticalAlign=middle;spacingTop=-1;spacingLeft=3;spacingRight=3;rotatable=0;labelPosition=right;points=[];portConstraint=eastwest;strokeColor=inherit;rounded=1;" parent="Ep6wm1nC07nQk0jGkavb-159" vertex="1">
          <mxGeometry y="110" width="257" height="8" as="geometry" />
        </mxCell>
        <mxCell id="Ep6wm1nC07nQk0jGkavb-162" value="&lt;font face=&quot;Times New Roman&quot;&gt;+getName(): String&lt;br&gt;+getCountries(): HashMap&amp;lt;Integer, Country&amp;gt;&lt;br&gt;+getContinents(): HashMap&amp;lt;Integer, Continent&amp;gt;&lt;br&gt;+getNumberOfArmies(): int&lt;br&gt;+removeArmies(): void&lt;br&gt;+addCountry(): void&lt;br&gt;+removeCountry(): void&lt;br&gt;+addContinent(): void&lt;br&gt;+removeContinent(): void&lt;br&gt;+setNumberOfArmies(): void&lt;br&gt;+issue_order(): void&lt;br&gt;+checkContinent(): boolean&lt;br&gt;+next_order(): Orders&lt;br&gt;&lt;/font&gt;&lt;div&gt;&lt;br&gt;&lt;/div&gt;" style="text;strokeColor=none;fillColor=none;align=left;verticalAlign=top;spacingLeft=4;spacingRight=4;overflow=hidden;rotatable=0;points=[[0,0.5],[1,0.5]];portConstraint=eastwest;whiteSpace=wrap;html=1;rounded=1;" parent="Ep6wm1nC07nQk0jGkavb-159" vertex="1">
          <mxGeometry y="118" width="257" height="199" as="geometry" />
        </mxCell>
        <mxCell id="Ep6wm1nC07nQk0jGkavb-168" value="&lt;font face=&quot;Times New Roman&quot;&gt;«interface»&lt;br&gt;&lt;b&gt;Orders&lt;/b&gt;&lt;/font&gt;" style="html=1;whiteSpace=wrap;rounded=1;" parent="1" vertex="1">
          <mxGeometry x="1463" y="687" width="110" height="50" as="geometry" />
        </mxCell>
        <mxCell id="g_sSXByizbJ6WhdZ6kjL-8" style="edgeStyle=orthogonalEdgeStyle;rounded=0;orthogonalLoop=1;jettySize=auto;html=1;exitX=0.5;exitY=0;exitDx=0;exitDy=0;entryX=0.5;entryY=1;entryDx=0;entryDy=0;dashed=1;dashPattern=1 4;endArrow=block;endFill=0;" parent="1" source="Ep6wm1nC07nQk0jGkavb-169" target="Ep6wm1nC07nQk0jGkavb-168" edge="1">
          <mxGeometry relative="1" as="geometry">
            <Array as="points">
              <mxPoint x="1484" y="804" />
              <mxPoint x="1518" y="804" />
            </Array>
          </mxGeometry>
        </mxCell>
        <mxCell id="Ep6wm1nC07nQk0jGkavb-169" value="&lt;font face=&quot;Times New Roman&quot;&gt;ShowMap&lt;/font&gt;" style="swimlane;fontStyle=1;align=center;verticalAlign=top;childLayout=stackLayout;horizontal=1;startSize=26;horizontalStack=0;resizeParent=1;resizeParentMax=0;resizeLast=0;collapsible=1;marginBottom=0;whiteSpace=wrap;html=1;rounded=1;" parent="1" vertex="1">
          <mxGeometry x="1417" y="947" width="133" height="52" as="geometry" />
        </mxCell>
        <mxCell id="Ep6wm1nC07nQk0jGkavb-172" value="&lt;font face=&quot;Times New Roman&quot;&gt;+execute(): String&lt;/font&gt;" style="text;strokeColor=none;fillColor=none;align=left;verticalAlign=top;spacingLeft=4;spacingRight=4;overflow=hidden;rotatable=0;points=[[0,0.5],[1,0.5]];portConstraint=eastwest;whiteSpace=wrap;html=1;rounded=1;" parent="Ep6wm1nC07nQk0jGkavb-169" vertex="1">
          <mxGeometry y="26" width="133" height="26" as="geometry" />
        </mxCell>
        <mxCell id="Ep6wm1nC07nQk0jGkavb-173" value="&lt;font face=&quot;Times New Roman&quot;&gt;Commands&lt;/font&gt;" style="swimlane;fontStyle=1;align=center;verticalAlign=top;childLayout=stackLayout;horizontal=1;startSize=26;horizontalStack=0;resizeParent=1;resizeParentMax=0;resizeLast=0;collapsible=1;marginBottom=0;whiteSpace=wrap;html=1;rounded=1;" parent="1" vertex="1">
          <mxGeometry x="940" y="761" width="163" height="228" as="geometry" />
        </mxCell>
        <mxCell id="Ep6wm1nC07nQk0jGkavb-174" value="&lt;font face=&quot;Times New Roman&quot;&gt;-d_gameEngine: GameEngine&lt;/font&gt;" style="text;strokeColor=none;fillColor=none;align=left;verticalAlign=top;spacingLeft=4;spacingRight=4;overflow=hidden;rotatable=0;points=[[0,0.5],[1,0.5]];portConstraint=eastwest;whiteSpace=wrap;html=1;rounded=1;" parent="Ep6wm1nC07nQk0jGkavb-173" vertex="1">
          <mxGeometry y="26" width="163" height="24" as="geometry" />
        </mxCell>
        <mxCell id="Ep6wm1nC07nQk0jGkavb-175" value="" style="line;strokeWidth=1;fillColor=none;align=left;verticalAlign=middle;spacingTop=-1;spacingLeft=3;spacingRight=3;rotatable=0;labelPosition=right;points=[];portConstraint=eastwest;strokeColor=inherit;rounded=1;" parent="Ep6wm1nC07nQk0jGkavb-173" vertex="1">
          <mxGeometry y="50" width="163" height="8" as="geometry" />
        </mxCell>
        <mxCell id="Ep6wm1nC07nQk0jGkavb-176" value="&lt;font face=&quot;Times New Roman&quot;&gt;+executeCommand(): String&lt;/font&gt;&lt;div&gt;&lt;font face=&quot;kGleEldPvYVCyHQr3fqS&quot;&gt;+loadMap(): String&lt;/font&gt;&lt;/div&gt;&lt;div&gt;&lt;font face=&quot;kGleEldPvYVCyHQr3fqS&quot;&gt;+editContinent(): String&lt;/font&gt;&lt;/div&gt;&lt;div&gt;&lt;font face=&quot;kGleEldPvYVCyHQr3fqS&quot;&gt;+editCountry(): String&lt;/font&gt;&lt;/div&gt;&lt;div&gt;&lt;font face=&quot;kGleEldPvYVCyHQr3fqS&quot;&gt;+editNeighbor(): String&lt;/font&gt;&lt;/div&gt;&lt;div&gt;&lt;font face=&quot;kGleEldPvYVCyHQr3fqS&quot;&gt;+editMap(): String&lt;/font&gt;&lt;/div&gt;&lt;div&gt;&lt;font face=&quot;kGleEldPvYVCyHQr3fqS&quot;&gt;+saveMap(): String&lt;/font&gt;&lt;/div&gt;&lt;div&gt;&lt;font face=&quot;kGleEldPvYVCyHQr3fqS&quot;&gt;+gamePlayer(): String&lt;/font&gt;&lt;/div&gt;&lt;div&gt;&lt;font face=&quot;kGleEldPvYVCyHQr3fqS&quot;&gt;+validateMap(): String&lt;/font&gt;&lt;/div&gt;&lt;div&gt;&lt;font face=&quot;kGleEldPvYVCyHQr3fqS&quot;&gt;+assignCountries(): String&lt;/font&gt;&lt;/div&gt;&lt;div&gt;&lt;font face=&quot;kGleEldPvYVCyHQr3fqS&quot;&gt;+showMap(): String&lt;/font&gt;&lt;/div&gt;&lt;div&gt;&lt;font face=&quot;kGleEldPvYVCyHQr3fqS&quot;&gt;&lt;br&gt;&lt;/font&gt;&lt;/div&gt;&lt;div&gt;&lt;br&gt;&lt;/div&gt;" style="text;strokeColor=none;fillColor=none;align=left;verticalAlign=top;spacingLeft=4;spacingRight=4;overflow=hidden;rotatable=0;points=[[0,0.5],[1,0.5]];portConstraint=eastwest;whiteSpace=wrap;html=1;rounded=1;" parent="Ep6wm1nC07nQk0jGkavb-173" vertex="1">
          <mxGeometry y="58" width="163" height="170" as="geometry" />
        </mxCell>
        <mxCell id="Ep6wm1nC07nQk0jGkavb-177" value="&lt;font face=&quot;Times New Roman&quot;&gt;GameInitialization&lt;/font&gt;" style="swimlane;fontStyle=1;align=center;verticalAlign=top;childLayout=stackLayout;horizontal=1;startSize=26;horizontalStack=0;resizeParent=1;resizeParentMax=0;resizeLast=0;collapsible=1;marginBottom=0;whiteSpace=wrap;html=1;rounded=1;" parent="1" vertex="1">
          <mxGeometry x="689" y="1163" width="148" height="101" as="geometry" />
        </mxCell>
        <mxCell id="Ep6wm1nC07nQk0jGkavb-178" value="&lt;font face=&quot;Times New Roman&quot;&gt;-l_scanner: Scanner&lt;/font&gt;" style="text;strokeColor=none;fillColor=none;align=left;verticalAlign=top;spacingLeft=4;spacingRight=4;overflow=hidden;rotatable=0;points=[[0,0.5],[1,0.5]];portConstraint=eastwest;whiteSpace=wrap;html=1;rounded=1;" parent="Ep6wm1nC07nQk0jGkavb-177" vertex="1">
          <mxGeometry y="26" width="148" height="25" as="geometry" />
        </mxCell>
        <mxCell id="Ep6wm1nC07nQk0jGkavb-179" value="" style="line;strokeWidth=1;fillColor=none;align=left;verticalAlign=middle;spacingTop=-1;spacingLeft=3;spacingRight=3;rotatable=0;labelPosition=right;points=[];portConstraint=eastwest;strokeColor=inherit;rounded=1;" parent="Ep6wm1nC07nQk0jGkavb-177" vertex="1">
          <mxGeometry y="51" width="148" height="8" as="geometry" />
        </mxCell>
        <mxCell id="Ep6wm1nC07nQk0jGkavb-180" value="&lt;font face=&quot;Times New Roman&quot;&gt;+getCommand(): String[]&lt;br&gt;+main(): void&lt;/font&gt;" style="text;strokeColor=none;fillColor=none;align=left;verticalAlign=top;spacingLeft=4;spacingRight=4;overflow=hidden;rotatable=0;points=[[0,0.5],[1,0.5]];portConstraint=eastwest;whiteSpace=wrap;html=1;rounded=1;" parent="Ep6wm1nC07nQk0jGkavb-177" vertex="1">
          <mxGeometry y="59" width="148" height="42" as="geometry" />
        </mxCell>
        <mxCell id="Ep6wm1nC07nQk0jGkavb-181" value="&lt;font face=&quot;Times New Roman&quot;&gt;MapValidation&lt;/font&gt;" style="swimlane;fontStyle=1;align=center;verticalAlign=top;childLayout=stackLayout;horizontal=1;startSize=26;horizontalStack=0;resizeParent=1;resizeParentMax=0;resizeLast=0;collapsible=1;marginBottom=0;whiteSpace=wrap;html=1;rounded=1;" parent="1" vertex="1">
          <mxGeometry x="299" y="1016" width="190" height="248" as="geometry" />
        </mxCell>
        <mxCell id="Ep6wm1nC07nQk0jGkavb-182" value="&lt;font face=&quot;Times New Roman&quot;&gt;-dconnectedGraph: boolean&lt;br&gt;-d_connectedSubGraph: boolean&lt;br&gt;-d_gameMap: GameMap&lt;br&gt;-d_emptyMap: boolean&lt;br&gt;-d_emptyContinent: boolean&lt;br&gt;-d_flag: boolean&lt;br&gt;-d_iteratingContinent: boolean&lt;br&gt;-d_currentContinentIteration: int&lt;/font&gt;" style="text;strokeColor=none;fillColor=none;align=left;verticalAlign=top;spacingLeft=4;spacingRight=4;overflow=hidden;rotatable=0;points=[[0,0.5],[1,0.5]];portConstraint=eastwest;whiteSpace=wrap;html=1;rounded=1;" parent="Ep6wm1nC07nQk0jGkavb-181" vertex="1">
          <mxGeometry y="26" width="190" height="129" as="geometry" />
        </mxCell>
        <mxCell id="Ep6wm1nC07nQk0jGkavb-183" value="" style="line;strokeWidth=1;fillColor=none;align=left;verticalAlign=middle;spacingTop=-1;spacingLeft=3;spacingRight=3;rotatable=0;labelPosition=right;points=[];portConstraint=eastwest;strokeColor=inherit;rounded=1;" parent="Ep6wm1nC07nQk0jGkavb-181" vertex="1">
          <mxGeometry y="155" width="190" height="8" as="geometry" />
        </mxCell>
        <mxCell id="Ep6wm1nC07nQk0jGkavb-184" value="&lt;font face=&quot;Times New Roman&quot;&gt;+validate(): String&lt;br&gt;+checkAll(): boolean&lt;br&gt;+isConnected(): boolean&lt;br&gt;+getMapValidationStatus(): boolean&lt;br&gt;+countryIterator(): Set&amp;lt;Integer&amp;gt;&lt;/font&gt;" style="text;strokeColor=none;fillColor=none;align=left;verticalAlign=top;spacingLeft=4;spacingRight=4;overflow=hidden;rotatable=0;points=[[0,0.5],[1,0.5]];portConstraint=eastwest;whiteSpace=wrap;html=1;rounded=1;" parent="Ep6wm1nC07nQk0jGkavb-181" vertex="1">
          <mxGeometry y="163" width="190" height="85" as="geometry" />
        </mxCell>
        <mxCell id="g_sSXByizbJ6WhdZ6kjL-1" style="edgeStyle=orthogonalEdgeStyle;rounded=0;orthogonalLoop=1;jettySize=auto;html=1;exitX=0;exitY=0.5;exitDx=0;exitDy=0;entryX=0.438;entryY=1.012;entryDx=0;entryDy=0;entryPerimeter=0;endArrow=open;endFill=0;" parent="1" source="Ep6wm1nC07nQk0jGkavb-152" target="Ep6wm1nC07nQk0jGkavb-8" edge="1">
          <mxGeometry relative="1" as="geometry">
            <Array as="points">
              <mxPoint x="133" y="595" />
            </Array>
          </mxGeometry>
        </mxCell>
        <mxCell id="g_sSXByizbJ6WhdZ6kjL-3" style="edgeStyle=orthogonalEdgeStyle;rounded=0;orthogonalLoop=1;jettySize=auto;html=1;exitX=0.5;exitY=0;exitDx=0;exitDy=0;entryX=0.458;entryY=1.008;entryDx=0;entryDy=0;entryPerimeter=0;endArrow=open;endFill=0;" parent="1" source="Ep6wm1nC07nQk0jGkavb-151" target="Ep6wm1nC07nQk0jGkavb-16" edge="1">
          <mxGeometry relative="1" as="geometry" />
        </mxCell>
        <mxCell id="g_sSXByizbJ6WhdZ6kjL-4" style="edgeStyle=orthogonalEdgeStyle;rounded=0;orthogonalLoop=1;jettySize=auto;html=1;exitX=0;exitY=0.5;exitDx=0;exitDy=0;entryX=0.673;entryY=0.006;entryDx=0;entryDy=0;entryPerimeter=0;endArrow=open;endFill=0;" parent="1" source="Ep6wm1nC07nQk0jGkavb-140" target="Ep6wm1nC07nQk0jGkavb-151" edge="1">
          <mxGeometry relative="1" as="geometry" />
        </mxCell>
        <mxCell id="g_sSXByizbJ6WhdZ6kjL-6" style="edgeStyle=orthogonalEdgeStyle;rounded=0;orthogonalLoop=1;jettySize=auto;html=1;exitX=1;exitY=0.5;exitDx=0;exitDy=0;entryX=-0.008;entryY=0.748;entryDx=0;entryDy=0;entryPerimeter=0;endArrow=open;endFill=0;" parent="1" source="Ep6wm1nC07nQk0jGkavb-138" target="Ep6wm1nC07nQk0jGkavb-144" edge="1">
          <mxGeometry relative="1" as="geometry" />
        </mxCell>
        <mxCell id="g_sSXByizbJ6WhdZ6kjL-7" style="edgeStyle=orthogonalEdgeStyle;rounded=0;orthogonalLoop=1;jettySize=auto;html=1;exitX=0.5;exitY=0;exitDx=0;exitDy=0;entryX=0.855;entryY=0.006;entryDx=0;entryDy=0;entryPerimeter=0;endArrow=open;endFill=0;" parent="1" source="Ep6wm1nC07nQk0jGkavb-137" target="Ep6wm1nC07nQk0jGkavb-147" edge="1">
          <mxGeometry relative="1" as="geometry" />
        </mxCell>
        <mxCell id="g_sSXByizbJ6WhdZ6kjL-13" style="edgeStyle=orthogonalEdgeStyle;rounded=0;orthogonalLoop=1;jettySize=auto;html=1;exitX=1;exitY=0.5;exitDx=0;exitDy=0;entryX=-0.012;entryY=0.648;entryDx=0;entryDy=0;entryPerimeter=0;endArrow=open;endFill=0;" parent="1" source="Ep6wm1nC07nQk0jGkavb-178" target="Ep6wm1nC07nQk0jGkavb-176" edge="1">
          <mxGeometry relative="1" as="geometry" />
        </mxCell>
        <mxCell id="g_sSXByizbJ6WhdZ6kjL-14" style="edgeStyle=orthogonalEdgeStyle;rounded=0;orthogonalLoop=1;jettySize=auto;html=1;exitX=0;exitY=0.5;exitDx=0;exitDy=0;entryX=0.5;entryY=0;entryDx=0;entryDy=0;endArrow=open;endFill=0;" parent="1" source="Ep6wm1nC07nQk0jGkavb-162" target="Ep6wm1nC07nQk0jGkavb-177" edge="1">
          <mxGeometry relative="1" as="geometry" />
        </mxCell>
        <mxCell id="g_sSXByizbJ6WhdZ6kjL-15" style="edgeStyle=orthogonalEdgeStyle;rounded=0;orthogonalLoop=1;jettySize=auto;html=1;exitX=0;exitY=0.5;exitDx=0;exitDy=0;entryX=0.618;entryY=0.005;entryDx=0;entryDy=0;entryPerimeter=0;endArrow=open;endFill=0;" parent="1" source="Ep6wm1nC07nQk0jGkavb-154" target="Ep6wm1nC07nQk0jGkavb-181" edge="1">
          <mxGeometry relative="1" as="geometry" />
        </mxCell>
        <mxCell id="g_sSXByizbJ6WhdZ6kjL-16" style="edgeStyle=orthogonalEdgeStyle;rounded=0;orthogonalLoop=1;jettySize=auto;html=1;exitX=1;exitY=0.5;exitDx=0;exitDy=0;entryX=0.005;entryY=0.336;entryDx=0;entryDy=0;entryPerimeter=0;endArrow=open;endFill=0;" parent="1" source="Ep6wm1nC07nQk0jGkavb-154" target="Ep6wm1nC07nQk0jGkavb-162" edge="1">
          <mxGeometry relative="1" as="geometry" />
        </mxCell>
        <mxCell id="g_sSXByizbJ6WhdZ6kjL-19" style="edgeStyle=orthogonalEdgeStyle;rounded=0;orthogonalLoop=1;jettySize=auto;html=1;exitX=0;exitY=0.5;exitDx=0;exitDy=0;entryX=0.999;entryY=0.886;entryDx=0;entryDy=0;entryPerimeter=0;endArrow=open;endFill=0;" parent="1" source="Ep6wm1nC07nQk0jGkavb-176" target="Ep6wm1nC07nQk0jGkavb-140" edge="1">
          <mxGeometry relative="1" as="geometry">
            <mxPoint x="856" y="310" as="targetPoint" />
            <Array as="points">
              <mxPoint x="904" y="904" />
              <mxPoint x="904" y="468" />
            </Array>
          </mxGeometry>
        </mxCell>
        <mxCell id="g_sSXByizbJ6WhdZ6kjL-21" value="" style="endArrow=open;html=1;rounded=0;exitX=0.548;exitY=1.008;exitDx=0;exitDy=0;exitPerimeter=0;entryX=0.279;entryY=0.008;entryDx=0;entryDy=0;entryPerimeter=0;endFill=0;" parent="1" source="Ep6wm1nC07nQk0jGkavb-140" target="Ep6wm1nC07nQk0jGkavb-159" edge="1">
          <mxGeometry width="50" height="50" relative="1" as="geometry">
            <mxPoint x="800" y="458" as="sourcePoint" />
            <mxPoint x="850" y="408" as="targetPoint" />
          </mxGeometry>
        </mxCell>
        <mxCell id="WeDi0cGP_TiEVpOtjkg3-1" value="Observable" style="swimlane;fontStyle=1;align=center;verticalAlign=top;childLayout=stackLayout;horizontal=1;startSize=26;horizontalStack=0;resizeParent=1;resizeParentMax=0;resizeLast=0;collapsible=1;marginBottom=0;whiteSpace=wrap;html=1;rounded=1;" vertex="1" parent="1">
          <mxGeometry x="685" y="-331" width="251" height="140" as="geometry" />
        </mxCell>
        <mxCell id="WeDi0cGP_TiEVpOtjkg3-2" value="-d_observers: List&amp;lt;Observer&amp;gt;" style="text;strokeColor=none;fillColor=none;align=left;verticalAlign=top;spacingLeft=4;spacingRight=4;overflow=hidden;rotatable=0;points=[[0,0.5],[1,0.5]];portConstraint=eastwest;whiteSpace=wrap;html=1;" vertex="1" parent="WeDi0cGP_TiEVpOtjkg3-1">
          <mxGeometry y="26" width="251" height="41" as="geometry" />
        </mxCell>
        <mxCell id="WeDi0cGP_TiEVpOtjkg3-3" value="" style="line;strokeWidth=1;fillColor=none;align=left;verticalAlign=middle;spacingTop=-1;spacingLeft=3;spacingRight=3;rotatable=0;labelPosition=right;points=[];portConstraint=eastwest;strokeColor=inherit;" vertex="1" parent="WeDi0cGP_TiEVpOtjkg3-1">
          <mxGeometry y="67" width="251" height="8" as="geometry" />
        </mxCell>
        <mxCell id="WeDi0cGP_TiEVpOtjkg3-4" value="+attach(): void&lt;div&gt;+detach(): void&lt;/div&gt;&lt;div&gt;+notifyObservers(): void&lt;/div&gt;" style="text;strokeColor=none;fillColor=none;align=left;verticalAlign=top;spacingLeft=4;spacingRight=4;overflow=hidden;rotatable=0;points=[[0,0.5],[1,0.5]];portConstraint=eastwest;whiteSpace=wrap;html=1;" vertex="1" parent="WeDi0cGP_TiEVpOtjkg3-1">
          <mxGeometry y="75" width="251" height="65" as="geometry" />
        </mxCell>
        <mxCell id="WeDi0cGP_TiEVpOtjkg3-5" value="LogEntryBuffer" style="swimlane;fontStyle=1;align=center;verticalAlign=top;childLayout=stackLayout;horizontal=1;startSize=26;horizontalStack=0;resizeParent=1;resizeParentMax=0;resizeLast=0;collapsible=1;marginBottom=0;whiteSpace=wrap;html=1;rounded=1;" vertex="1" parent="1">
          <mxGeometry x="796" y="-112" width="180" height="108" as="geometry" />
        </mxCell>
        <mxCell id="WeDi0cGP_TiEVpOtjkg3-6" value="-d_value: String" style="text;strokeColor=none;fillColor=none;align=left;verticalAlign=top;spacingLeft=4;spacingRight=4;overflow=hidden;rotatable=0;points=[[0,0.5],[1,0.5]];portConstraint=eastwest;whiteSpace=wrap;html=1;" vertex="1" parent="WeDi0cGP_TiEVpOtjkg3-5">
          <mxGeometry y="26" width="180" height="26" as="geometry" />
        </mxCell>
        <mxCell id="WeDi0cGP_TiEVpOtjkg3-7" value="" style="line;strokeWidth=1;fillColor=none;align=left;verticalAlign=middle;spacingTop=-1;spacingLeft=3;spacingRight=3;rotatable=0;labelPosition=right;points=[];portConstraint=eastwest;strokeColor=inherit;" vertex="1" parent="WeDi0cGP_TiEVpOtjkg3-5">
          <mxGeometry y="52" width="180" height="8" as="geometry" />
        </mxCell>
        <mxCell id="WeDi0cGP_TiEVpOtjkg3-8" value="+getString(): String&lt;div&gt;+setString(): void&lt;/div&gt;" style="text;strokeColor=none;fillColor=none;align=left;verticalAlign=top;spacingLeft=4;spacingRight=4;overflow=hidden;rotatable=0;points=[[0,0.5],[1,0.5]];portConstraint=eastwest;whiteSpace=wrap;html=1;" vertex="1" parent="WeDi0cGP_TiEVpOtjkg3-5">
          <mxGeometry y="60" width="180" height="48" as="geometry" />
        </mxCell>
        <mxCell id="WeDi0cGP_TiEVpOtjkg3-18" style="edgeStyle=orthogonalEdgeStyle;rounded=0;orthogonalLoop=1;jettySize=auto;html=1;exitX=0.5;exitY=0;exitDx=0;exitDy=0;entryX=0.5;entryY=1;entryDx=0;entryDy=0;endArrow=block;endFill=0;dashed=1;dashPattern=1 4;" edge="1" parent="1" source="WeDi0cGP_TiEVpOtjkg3-10" target="WeDi0cGP_TiEVpOtjkg3-14">
          <mxGeometry relative="1" as="geometry" />
        </mxCell>
        <mxCell id="WeDi0cGP_TiEVpOtjkg3-10" value="LogWriter" style="swimlane;fontStyle=1;align=center;verticalAlign=top;childLayout=stackLayout;horizontal=1;startSize=26;horizontalStack=0;resizeParent=1;resizeParentMax=0;resizeLast=0;collapsible=1;marginBottom=0;whiteSpace=wrap;html=1;rounded=1;" vertex="1" parent="1">
          <mxGeometry x="296" y="-195" width="202" height="117" as="geometry" />
        </mxCell>
        <mxCell id="WeDi0cGP_TiEVpOtjkg3-11" value="-d_logFile: FileWriter&lt;div&gt;-d_dtf: DateTimeFormatter&lt;/div&gt;&lt;div&gt;-d_now: LocalDateTime&lt;/div&gt;" style="text;strokeColor=none;fillColor=none;align=left;verticalAlign=top;spacingLeft=4;spacingRight=4;overflow=hidden;rotatable=0;points=[[0,0.5],[1,0.5]];portConstraint=eastwest;whiteSpace=wrap;html=1;" vertex="1" parent="WeDi0cGP_TiEVpOtjkg3-10">
          <mxGeometry y="26" width="202" height="54" as="geometry" />
        </mxCell>
        <mxCell id="WeDi0cGP_TiEVpOtjkg3-12" value="" style="line;strokeWidth=1;fillColor=none;align=left;verticalAlign=middle;spacingTop=-1;spacingLeft=3;spacingRight=3;rotatable=0;labelPosition=right;points=[];portConstraint=eastwest;strokeColor=inherit;" vertex="1" parent="WeDi0cGP_TiEVpOtjkg3-10">
          <mxGeometry y="80" width="202" height="8" as="geometry" />
        </mxCell>
        <mxCell id="WeDi0cGP_TiEVpOtjkg3-13" value="+update(): void" style="text;strokeColor=none;fillColor=none;align=left;verticalAlign=top;spacingLeft=4;spacingRight=4;overflow=hidden;rotatable=0;points=[[0,0.5],[1,0.5]];portConstraint=eastwest;whiteSpace=wrap;html=1;" vertex="1" parent="WeDi0cGP_TiEVpOtjkg3-10">
          <mxGeometry y="88" width="202" height="29" as="geometry" />
        </mxCell>
        <mxCell id="WeDi0cGP_TiEVpOtjkg3-14" value="&lt;p style=&quot;margin:0px;margin-top:4px;text-align:center;&quot;&gt;&lt;i&gt;&amp;lt;&amp;lt;Interface&amp;gt;&amp;gt;&lt;/i&gt;&lt;br&gt;&lt;b&gt;Observer&lt;/b&gt;&lt;/p&gt;&lt;hr size=&quot;1&quot; style=&quot;border-style:solid;&quot;&gt;&lt;p style=&quot;margin:0px;margin-left:4px;&quot;&gt;+ update(): void&lt;br&gt;&lt;/p&gt;" style="verticalAlign=top;align=left;overflow=fill;html=1;whiteSpace=wrap;rounded=1;" vertex="1" parent="1">
          <mxGeometry x="270" y="-445" width="190" height="72" as="geometry" />
        </mxCell>
        <mxCell id="WeDi0cGP_TiEVpOtjkg3-17" style="edgeStyle=orthogonalEdgeStyle;rounded=0;orthogonalLoop=1;jettySize=auto;html=1;exitX=1;exitY=0.5;exitDx=0;exitDy=0;entryX=1;entryY=0.5;entryDx=0;entryDy=0;endArrow=open;endFill=0;" edge="1" parent="1" source="WeDi0cGP_TiEVpOtjkg3-6" target="WeDi0cGP_TiEVpOtjkg3-2">
          <mxGeometry relative="1" as="geometry" />
        </mxCell>
        <mxCell id="WeDi0cGP_TiEVpOtjkg3-19" style="edgeStyle=orthogonalEdgeStyle;rounded=0;orthogonalLoop=1;jettySize=auto;html=1;exitX=0;exitY=0.5;exitDx=0;exitDy=0;entryX=1;entryY=0.841;entryDx=0;entryDy=0;entryPerimeter=0;endArrow=open;endFill=0;" edge="1" parent="1" source="Ep6wm1nC07nQk0jGkavb-138" target="WeDi0cGP_TiEVpOtjkg3-11">
          <mxGeometry relative="1" as="geometry">
            <mxPoint x="404.39996337890625" y="-65.99989318847656" as="targetPoint" />
            <Array as="points">
              <mxPoint x="541" y="167" />
              <mxPoint x="541" y="-124" />
            </Array>
          </mxGeometry>
        </mxCell>
        <mxCell id="WeDi0cGP_TiEVpOtjkg3-21" style="edgeStyle=orthogonalEdgeStyle;rounded=0;orthogonalLoop=1;jettySize=auto;html=1;exitX=0.5;exitY=0;exitDx=0;exitDy=0;entryX=0.016;entryY=-0.108;entryDx=0;entryDy=0;entryPerimeter=0;endArrow=open;endFill=0;" edge="1" parent="1" source="Ep6wm1nC07nQk0jGkavb-137" target="WeDi0cGP_TiEVpOtjkg3-8">
          <mxGeometry relative="1" as="geometry" />
        </mxCell>
        <mxCell id="WeDi0cGP_TiEVpOtjkg3-31" style="edgeStyle=orthogonalEdgeStyle;rounded=0;orthogonalLoop=1;jettySize=auto;html=1;exitX=0.5;exitY=1;exitDx=0;exitDy=0;entryX=0;entryY=0.5;entryDx=0;entryDy=0;endArrow=open;endFill=0;" edge="1" parent="1" source="WeDi0cGP_TiEVpOtjkg3-26" target="WeDi0cGP_TiEVpOtjkg3-30">
          <mxGeometry relative="1" as="geometry" />
        </mxCell>
        <mxCell id="WeDi0cGP_TiEVpOtjkg3-26" value="&lt;p style=&quot;margin:0px;margin-top:4px;text-align:center;&quot;&gt;&lt;b&gt;Phase&lt;/b&gt;&lt;/p&gt;&lt;hr size=&quot;1&quot;/&gt;&lt;p style=&quot;margin:0 0 0 4px;line-height:1.6;&quot;&gt;+ Phase(GameEngine): &lt;/p&gt;&lt;hr size=&quot;1&quot;/&gt;&lt;p style=&quot;margin:0 0 0 4px;line-height:1.6;&quot;&gt;+ addPlayer(String): String&lt;br/&gt;+ blockade(String[]): String&lt;br/&gt;+ showMap(): String&lt;br/&gt;+ saveMap(String): String&lt;br/&gt;+ editContinent(String[]): String&lt;br/&gt;+ assignCountries(): String&lt;br/&gt;+ editMap(String): String&lt;br/&gt;+ printInvalidCommandMessage(): String&lt;br/&gt;+ deploy(String[]): String&lt;br/&gt;+ loadMap(String): String&lt;br/&gt;+ editCountry(String[]): String&lt;br/&gt;+ issueOrders(): String&lt;br/&gt;+ printWinner(String): String&lt;br/&gt;+ editNeighbor(String[]): String&lt;br/&gt;+ gamePlayer(String[]): String&lt;br/&gt;+ bomb(String[]): String&lt;br/&gt;+ airlift(String[]): String&lt;br/&gt;+ assignArmies(): String&lt;br/&gt;+ executeOrders(): String&lt;br/&gt;+ diplomacy(String[]): String&lt;br/&gt;+ checkContinentOwnership(): String&lt;br/&gt;+ validateMap(): String&lt;br/&gt;+ removePlayer(String): String&lt;br/&gt;+ advance(String[]): String&lt;br/&gt;+ next(): void&lt;/p&gt;" style="verticalAlign=top;align=left;overflow=fill;fontSize=14;fontFamily=Helvetica;html=1;rounded=1;shadow=0;comic=0;labelBackgroundColor=none;strokeWidth=1;" vertex="1" parent="1">
          <mxGeometry x="1304" y="-650" width="288" height="656" as="geometry" />
        </mxCell>
        <mxCell id="WeDi0cGP_TiEVpOtjkg3-27" style="edgeStyle=orthogonalEdgeStyle;rounded=0;orthogonalLoop=1;jettySize=auto;html=1;exitX=0;exitY=0.75;exitDx=0;exitDy=0;entryX=0.963;entryY=0.008;entryDx=0;entryDy=0;entryPerimeter=0;endArrow=open;endFill=0;" edge="1" parent="1" source="WeDi0cGP_TiEVpOtjkg3-26" target="Ep6wm1nC07nQk0jGkavb-137">
          <mxGeometry relative="1" as="geometry">
            <Array as="points">
              <mxPoint x="1102" y="-158" />
              <mxPoint x="1102" y="16" />
              <mxPoint x="775" y="16" />
            </Array>
          </mxGeometry>
        </mxCell>
        <mxCell id="WeDi0cGP_TiEVpOtjkg3-28" value="&lt;p style=&quot;margin:0px;margin-top:4px;text-align:center;&quot;&gt;&lt;b&gt;EditPhase&lt;/b&gt;&lt;/p&gt;&lt;hr size=&quot;1&quot;/&gt;&lt;p style=&quot;margin:0 0 0 4px;line-height:1.6;&quot;&gt;+ EditPhase(GameEngine): &lt;/p&gt;&lt;hr size=&quot;1&quot;/&gt;&lt;p style=&quot;margin:0 0 0 4px;line-height:1.6;&quot;&gt;+ assignCountries(): String&lt;br/&gt;+ diplomacy(String[]): String&lt;br/&gt;+ bomb(String[]): String&lt;br/&gt;+ advance(String[]): String&lt;br/&gt;+ assignArmies(): String&lt;br/&gt;+ checkContinentOwnership(): String&lt;br/&gt;+ removePlayer(String): String&lt;br/&gt;+ airlift(String[]): String&lt;br/&gt;+ blockade(String[]): String&lt;br/&gt;+ deploy(String[]): String&lt;br/&gt;+ issueOrders(): String&lt;br/&gt;+ addPlayer(String): String&lt;br/&gt;+ executeOrders(): String&lt;br/&gt;+ gamePlayer(String[]): String&lt;br/&gt;+ printWinner(String): String&lt;br/&gt;+ loadMap(String): String&lt;/p&gt;" style="verticalAlign=top;align=left;overflow=fill;fontSize=14;fontFamily=Helvetica;html=1;rounded=1;shadow=0;comic=0;labelBackgroundColor=none;strokeWidth=1;" vertex="1" parent="1">
          <mxGeometry x="1788" y="-620" width="266" height="454" as="geometry" />
        </mxCell>
        <mxCell id="WeDi0cGP_TiEVpOtjkg3-29" style="edgeStyle=orthogonalEdgeStyle;rounded=0;orthogonalLoop=1;jettySize=auto;html=1;exitX=1;exitY=0.5;exitDx=0;exitDy=0;entryX=0.002;entryY=0.348;entryDx=0;entryDy=0;entryPerimeter=0;endArrow=open;endFill=0;" edge="1" parent="1" source="WeDi0cGP_TiEVpOtjkg3-26" target="WeDi0cGP_TiEVpOtjkg3-28">
          <mxGeometry relative="1" as="geometry" />
        </mxCell>
        <mxCell id="WeDi0cGP_TiEVpOtjkg3-30" value="&lt;p style=&quot;margin:0px;margin-top:4px;text-align:center;&quot;&gt;&lt;b&gt;GamePhase&lt;/b&gt;&lt;/p&gt;&lt;hr size=&quot;1&quot;/&gt;&lt;p style=&quot;margin:0 0 0 4px;line-height:1.6;&quot;&gt;+ GamePhase(GameEngine): &lt;/p&gt;&lt;hr size=&quot;1&quot;/&gt;&lt;p style=&quot;margin:0 0 0 4px;line-height:1.6;&quot;&gt;+ printWinner(String): String&lt;br/&gt;+ saveMap(String): String&lt;br/&gt;+ editNeighbor(String[]): String&lt;br/&gt;+ showMap(): String&lt;br/&gt;+ editCountry(String[]): String&lt;br/&gt;+ editContinent(String[]): String&lt;br/&gt;+ editMap(String): String&lt;/p&gt;" style="verticalAlign=top;align=left;overflow=fill;fontSize=14;fontFamily=Helvetica;html=1;rounded=1;shadow=0;comic=0;labelBackgroundColor=none;strokeWidth=1;" vertex="1" parent="1">
          <mxGeometry x="1800" y="-56" width="234" height="250" as="geometry" />
        </mxCell>
        <mxCell id="WeDi0cGP_TiEVpOtjkg3-32" value="&lt;p style=&quot;margin:0px;margin-top:4px;text-align:center;&quot;&gt;&lt;b&gt;EndPhase&lt;/b&gt;&lt;/p&gt;&lt;hr size=&quot;1&quot;/&gt;&lt;p style=&quot;margin:0 0 0 4px;line-height:1.6;&quot;&gt;+ EndPhase(GameEngine): &lt;/p&gt;&lt;hr size=&quot;1&quot;/&gt;&lt;p style=&quot;margin:0 0 0 4px;line-height:1.6;&quot;&gt;+ airlift(String[]): String&lt;br/&gt;+ printWinner(String): String&lt;br/&gt;+ issueOrders(): String&lt;br/&gt;+ removePlayer(String): String&lt;br/&gt;+ advance(String[]): String&lt;br/&gt;+ loadMap(String): String&lt;br/&gt;+ assignCountries(): String&lt;br/&gt;+ assignArmies(): String&lt;br/&gt;+ deploy(String[]): String&lt;br/&gt;+ next(): void&lt;br/&gt;+ diplomacy(String[]): String&lt;br/&gt;+ bomb(String[]): String&lt;br/&gt;+ gamePlayer(String[]): String&lt;br/&gt;+ executeOrders(): String&lt;br/&gt;+ blockade(String[]): String&lt;br/&gt;+ addPlayer(String): String&lt;br/&gt;+ checkContinentOwnership(): String&lt;/p&gt;" style="verticalAlign=top;align=left;overflow=fill;fontSize=14;fontFamily=Helvetica;html=1;rounded=1;shadow=0;comic=0;labelBackgroundColor=none;strokeWidth=1;" vertex="1" parent="1">
          <mxGeometry x="1905" y="326" width="266" height="479" as="geometry" />
        </mxCell>
        <mxCell id="WeDi0cGP_TiEVpOtjkg3-33" style="edgeStyle=orthogonalEdgeStyle;rounded=0;orthogonalLoop=1;jettySize=auto;html=1;exitX=0.5;exitY=1;exitDx=0;exitDy=0;entryX=0.473;entryY=0.002;entryDx=0;entryDy=0;entryPerimeter=0;endArrow=open;endFill=0;" edge="1" parent="1" source="WeDi0cGP_TiEVpOtjkg3-30" target="WeDi0cGP_TiEVpOtjkg3-32">
          <mxGeometry relative="1" as="geometry" />
        </mxCell>
        <mxCell id="WeDi0cGP_TiEVpOtjkg3-51" style="edgeStyle=orthogonalEdgeStyle;rounded=0;orthogonalLoop=1;jettySize=auto;html=1;exitX=1;exitY=0.5;exitDx=0;exitDy=0;entryX=0;entryY=0.25;entryDx=0;entryDy=0;endArrow=open;endFill=0;" edge="1" parent="1" source="WeDi0cGP_TiEVpOtjkg3-35" target="WeDi0cGP_TiEVpOtjkg3-50">
          <mxGeometry relative="1" as="geometry">
            <mxPoint x="2885.2001342773438" y="702.8001098632812" as="targetPoint" />
          </mxGeometry>
        </mxCell>
        <mxCell id="WeDi0cGP_TiEVpOtjkg3-55" style="edgeStyle=orthogonalEdgeStyle;rounded=0;orthogonalLoop=1;jettySize=auto;html=1;exitX=0;exitY=0.75;exitDx=0;exitDy=0;entryX=1;entryY=0.25;entryDx=0;entryDy=0;endArrow=open;endFill=0;" edge="1" parent="1" target="WeDi0cGP_TiEVpOtjkg3-54">
          <mxGeometry relative="1" as="geometry">
            <mxPoint x="2282.8001098632812" y="802.2001342773438" as="targetPoint" />
            <mxPoint x="2457" y="532.5" as="sourcePoint" />
          </mxGeometry>
        </mxCell>
        <mxCell id="WeDi0cGP_TiEVpOtjkg3-35" value="&lt;p style=&quot;margin:0px;margin-top:4px;text-align:center;&quot;&gt;&lt;b&gt;GamePlay&lt;/b&gt;&lt;/p&gt;&lt;hr size=&quot;1&quot;/&gt;&lt;p style=&quot;margin:0 0 0 4px;line-height:1.6;&quot;&gt;+ GamePlay(GameEngine): &lt;/p&gt;&lt;hr size=&quot;1&quot;/&gt;&lt;p style=&quot;margin:0 0 0 4px;line-height:1.6;&quot;&gt;+ printWinner(String): String&lt;br/&gt;+ loadMap(String): String&lt;br/&gt;+ assignCountries(): String&lt;br/&gt;+ addPlayer(String): String&lt;br/&gt;+ removePlayer(String): String&lt;br/&gt;+ gamePlayer(String[]): String&lt;/p&gt;" style="verticalAlign=top;align=left;overflow=fill;fontSize=14;fontFamily=Helvetica;html=1;rounded=1;shadow=0;comic=0;labelBackgroundColor=none;strokeWidth=1;" vertex="1" parent="1">
          <mxGeometry x="2457" y="356" width="221" height="234" as="geometry" />
        </mxCell>
        <mxCell id="WeDi0cGP_TiEVpOtjkg3-36" style="edgeStyle=orthogonalEdgeStyle;rounded=0;orthogonalLoop=1;jettySize=auto;html=1;exitX=1;exitY=0.75;exitDx=0;exitDy=0;entryX=0.001;entryY=0.132;entryDx=0;entryDy=0;entryPerimeter=0;endArrow=open;endFill=0;" edge="1" parent="1" source="WeDi0cGP_TiEVpOtjkg3-30" target="WeDi0cGP_TiEVpOtjkg3-35">
          <mxGeometry relative="1" as="geometry" />
        </mxCell>
        <mxCell id="WeDi0cGP_TiEVpOtjkg3-47" style="edgeStyle=orthogonalEdgeStyle;rounded=0;orthogonalLoop=1;jettySize=auto;html=1;exitX=1;exitY=0.5;exitDx=0;exitDy=0;entryX=0;entryY=0.5;entryDx=0;entryDy=0;endArrow=open;endFill=0;" edge="1" parent="1" source="WeDi0cGP_TiEVpOtjkg3-37" target="WeDi0cGP_TiEVpOtjkg3-43">
          <mxGeometry relative="1" as="geometry" />
        </mxCell>
        <mxCell id="WeDi0cGP_TiEVpOtjkg3-37" value="&lt;p style=&quot;margin:0px;margin-top:4px;text-align:center;&quot;&gt;&lt;b&gt;GameSetup&lt;/b&gt;&lt;/p&gt;&lt;hr size=&quot;1&quot;/&gt;&lt;p style=&quot;margin:0 0 0 4px;line-height:1.6;&quot;&gt;+ GameSetup(GameEngine): &lt;/p&gt;&lt;hr size=&quot;1&quot;/&gt;&lt;p style=&quot;margin:0 0 0 4px;line-height:1.6;&quot;&gt;+ assignArmies(): String&lt;br/&gt;+ bomb(String[]): String&lt;br/&gt;+ executeOrders(): String&lt;br/&gt;+ checkContinentOwnership(): String&lt;br/&gt;+ printWinner(String): String&lt;br/&gt;+ issueOrders(): String&lt;br/&gt;+ advance(String[]): String&lt;br/&gt;+ assignCountries(): String&lt;br/&gt;+ diplomacy(String[]): String&lt;br/&gt;+ deploy(String[]): String&lt;br/&gt;+ blockade(String[]): String&lt;br/&gt;+ airlift(String[]): String&lt;/p&gt;" style="verticalAlign=top;align=left;overflow=fill;fontSize=14;fontFamily=Helvetica;html=1;rounded=1;shadow=0;comic=0;labelBackgroundColor=none;strokeWidth=1;" vertex="1" parent="1">
          <mxGeometry x="2439" y="-52" width="272" height="361" as="geometry" />
        </mxCell>
        <mxCell id="WeDi0cGP_TiEVpOtjkg3-38" style="edgeStyle=orthogonalEdgeStyle;rounded=0;orthogonalLoop=1;jettySize=auto;html=1;exitX=1;exitY=0.5;exitDx=0;exitDy=0;entryX=-0.001;entryY=0.336;entryDx=0;entryDy=0;entryPerimeter=0;endArrow=open;endFill=0;" edge="1" parent="1" source="WeDi0cGP_TiEVpOtjkg3-30" target="WeDi0cGP_TiEVpOtjkg3-37">
          <mxGeometry relative="1" as="geometry" />
        </mxCell>
        <mxCell id="WeDi0cGP_TiEVpOtjkg3-39" value="&lt;p style=&quot;margin:0px;margin-top:4px;text-align:center;&quot;&gt;&lt;b&gt;PreEdit&lt;/b&gt;&lt;/p&gt;&lt;hr size=&quot;1&quot;/&gt;&lt;p style=&quot;margin:0 0 0 4px;line-height:1.6;&quot;&gt;+ PreEdit(GameEngine): &lt;/p&gt;&lt;hr size=&quot;1&quot;/&gt;&lt;p style=&quot;margin:0 0 0 4px;line-height:1.6;&quot;&gt;+ editMap(String): String&lt;br/&gt;+ editNeighbor(String[]): String&lt;br/&gt;+ next(): void&lt;br/&gt;+ editContinent(String[]): String&lt;br/&gt;+ saveMap(String): String&lt;br/&gt;+ editCountry(String[]): String&lt;br/&gt;+ validateMap(): String&lt;/p&gt;" style="verticalAlign=top;align=left;overflow=fill;fontSize=14;fontFamily=Helvetica;html=1;rounded=1;shadow=0;comic=0;labelBackgroundColor=none;strokeWidth=1;" vertex="1" parent="1">
          <mxGeometry x="2463" y="-340" width="234" height="244" as="geometry" />
        </mxCell>
        <mxCell id="WeDi0cGP_TiEVpOtjkg3-40" style="edgeStyle=orthogonalEdgeStyle;rounded=0;orthogonalLoop=1;jettySize=auto;html=1;exitX=1;exitY=0.75;exitDx=0;exitDy=0;entryX=-0.001;entryY=0.605;entryDx=0;entryDy=0;entryPerimeter=0;endArrow=open;endFill=0;" edge="1" parent="1" source="WeDi0cGP_TiEVpOtjkg3-28" target="WeDi0cGP_TiEVpOtjkg3-39">
          <mxGeometry relative="1" as="geometry" />
        </mxCell>
        <mxCell id="WeDi0cGP_TiEVpOtjkg3-41" value="&lt;p style=&quot;margin:0px;margin-top:4px;text-align:center;&quot;&gt;&lt;b&gt;PostEdit&lt;/b&gt;&lt;/p&gt;&lt;hr size=&quot;1&quot;/&gt;&lt;p style=&quot;margin:0 0 0 4px;line-height:1.6;&quot;&gt;+ PostEdit(GameEngine): &lt;/p&gt;&lt;hr size=&quot;1&quot;/&gt;&lt;p style=&quot;margin:0 0 0 4px;line-height:1.6;&quot;&gt;+ editMap(String): String&lt;br/&gt;+ next(): void&lt;br/&gt;+ saveMap(String): String&lt;br/&gt;+ editContinent(String[]): String&lt;br/&gt;+ editCountry(String[]): String&lt;br/&gt;+ editNeighbor(String[]): String&lt;/p&gt;" style="verticalAlign=top;align=left;overflow=fill;fontSize=14;fontFamily=Helvetica;html=1;rounded=1;shadow=0;comic=0;labelBackgroundColor=none;strokeWidth=1;" vertex="1" parent="1">
          <mxGeometry x="2412" y="-628" width="234" height="224" as="geometry" />
        </mxCell>
        <mxCell id="WeDi0cGP_TiEVpOtjkg3-42" style="edgeStyle=orthogonalEdgeStyle;rounded=0;orthogonalLoop=1;jettySize=auto;html=1;exitX=1;exitY=0.5;exitDx=0;exitDy=0;entryX=-0.002;entryY=0.438;entryDx=0;entryDy=0;entryPerimeter=0;endArrow=open;endFill=0;" edge="1" parent="1" source="WeDi0cGP_TiEVpOtjkg3-28" target="WeDi0cGP_TiEVpOtjkg3-41">
          <mxGeometry relative="1" as="geometry" />
        </mxCell>
        <mxCell id="WeDi0cGP_TiEVpOtjkg3-43" value="&lt;p style=&quot;margin:0px;margin-top:4px;text-align:center;&quot;&gt;&lt;b&gt;PreLoad&lt;/b&gt;&lt;/p&gt;&lt;hr size=&quot;1&quot;/&gt;&lt;p style=&quot;margin:0 0 0 4px;line-height:1.6;&quot;&gt;+ PreLoad(GameEngine): &lt;/p&gt;&lt;hr size=&quot;1&quot;/&gt;&lt;p style=&quot;margin:0 0 0 4px;line-height:1.6;&quot;&gt;+ removePlayer(String): String&lt;br/&gt;+ loadMap(String): String&lt;br/&gt;+ addPlayer(String): String&lt;br/&gt;+ next(): void&lt;br/&gt;+ gamePlayer(String[]): String&lt;/p&gt;" style="verticalAlign=top;align=left;overflow=fill;fontSize=14;fontFamily=Helvetica;html=1;rounded=1;shadow=0;comic=0;labelBackgroundColor=none;strokeWidth=1;" vertex="1" parent="1">
          <mxGeometry x="2925" y="32" width="221" height="204" as="geometry" />
        </mxCell>
        <mxCell id="WeDi0cGP_TiEVpOtjkg3-45" value="&lt;p style=&quot;margin:0px;margin-top:4px;text-align:center;&quot;&gt;&lt;b&gt;PostLoad&lt;/b&gt;&lt;/p&gt;&lt;hr size=&quot;1&quot;/&gt;&lt;p style=&quot;margin:0 0 0 4px;line-height:1.6;&quot;&gt;+ PostLoad(GameEngine): &lt;/p&gt;&lt;hr size=&quot;1&quot;/&gt;&lt;p style=&quot;margin:0 0 0 4px;line-height:1.6;&quot;&gt;+ loadMap(String): String&lt;br/&gt;+ addPlayer(String): String&lt;br/&gt;+ removePlayer(String): String&lt;br/&gt;+ next(): void&lt;br/&gt;+ assignCountries(): String&lt;br/&gt;+ gamePlayer(String[]): String&lt;/p&gt;" style="verticalAlign=top;align=left;overflow=fill;fontSize=14;fontFamily=Helvetica;html=1;rounded=1;shadow=0;comic=0;labelBackgroundColor=none;strokeWidth=1;" vertex="1" parent="1">
          <mxGeometry x="2951" y="294" width="221" height="222" as="geometry" />
        </mxCell>
        <mxCell id="WeDi0cGP_TiEVpOtjkg3-48" style="edgeStyle=orthogonalEdgeStyle;rounded=0;orthogonalLoop=1;jettySize=auto;html=1;exitX=1;exitY=0.75;exitDx=0;exitDy=0;entryX=0.003;entryY=0.631;entryDx=0;entryDy=0;entryPerimeter=0;endArrow=open;endFill=0;" edge="1" parent="1" source="WeDi0cGP_TiEVpOtjkg3-37" target="WeDi0cGP_TiEVpOtjkg3-45">
          <mxGeometry relative="1" as="geometry" />
        </mxCell>
        <mxCell id="WeDi0cGP_TiEVpOtjkg3-50" value="&lt;p style=&quot;margin:0px;margin-top:4px;text-align:center;&quot;&gt;&lt;b&gt;AssignArmies&lt;/b&gt;&lt;/p&gt;&lt;hr size=&quot;1&quot;/&gt;&lt;p style=&quot;margin:0 0 0 4px;line-height:1.6;&quot;&gt;+ AssignArmies(GameEngine): &lt;/p&gt;&lt;hr size=&quot;1&quot;/&gt;&lt;p style=&quot;margin:0 0 0 4px;line-height:1.6;&quot;&gt;+ advance(String[]): String&lt;br/&gt;+ assignArmies(): String&lt;br/&gt;+ blockade(String[]): String&lt;br/&gt;+ diplomacy(String[]): String&lt;br/&gt;+ airlift(String[]): String&lt;br/&gt;+ executeOrders(): String&lt;br/&gt;+ deploy(String[]): String&lt;br/&gt;+ checkContinentOwnership(): String&lt;br/&gt;+ showMap(): String&lt;br/&gt;+ issueOrders(): String&lt;br/&gt;+ bomb(String[]): String&lt;br/&gt;+ next(): void&lt;/p&gt;" style="verticalAlign=top;align=left;overflow=fill;fontSize=14;fontFamily=Helvetica;html=1;rounded=1;shadow=0;comic=0;labelBackgroundColor=none;strokeWidth=1;" vertex="1" parent="1">
          <mxGeometry x="2940" y="648" width="266" height="365" as="geometry" />
        </mxCell>
        <mxCell id="WeDi0cGP_TiEVpOtjkg3-52" value="&lt;p style=&quot;margin:0px;margin-top:4px;text-align:center;&quot;&gt;&lt;b&gt;IssueOrders&lt;/b&gt;&lt;/p&gt;&lt;hr size=&quot;1&quot;/&gt;&lt;p style=&quot;margin:0 0 0 4px;line-height:1.6;&quot;&gt;+ IssueOrders(GameEngine): &lt;/p&gt;&lt;hr size=&quot;1&quot;/&gt;&lt;p style=&quot;margin:0 0 0 4px;line-height:1.6;&quot;&gt;+ advance(String[]): String&lt;br/&gt;+ airlift(String[]): String&lt;br/&gt;+ diplomacy(String[]): String&lt;br/&gt;+ next(): void&lt;br/&gt;+ showMap(): String&lt;br/&gt;+ blockade(String[]): String&lt;br/&gt;+ deploy(String[]): String&lt;br/&gt;+ issueOrders(): String&lt;br/&gt;+ checkContinentOwnership(): String&lt;br/&gt;+ executeOrders(): String&lt;br/&gt;+ assignArmies(): String&lt;br/&gt;+ bomb(String[]): String&lt;/p&gt;" style="verticalAlign=top;align=left;overflow=fill;fontSize=14;fontFamily=Helvetica;html=1;rounded=1;shadow=0;comic=0;labelBackgroundColor=none;strokeWidth=1;" vertex="1" parent="1">
          <mxGeometry x="2471" y="718" width="266" height="365" as="geometry" />
        </mxCell>
        <mxCell id="WeDi0cGP_TiEVpOtjkg3-53" style="edgeStyle=orthogonalEdgeStyle;rounded=0;orthogonalLoop=1;jettySize=auto;html=1;exitX=0.5;exitY=1;exitDx=0;exitDy=0;entryX=0.423;entryY=0;entryDx=0;entryDy=0;entryPerimeter=0;endArrow=open;endFill=0;" edge="1" parent="1" source="WeDi0cGP_TiEVpOtjkg3-35" target="WeDi0cGP_TiEVpOtjkg3-52">
          <mxGeometry relative="1" as="geometry" />
        </mxCell>
        <mxCell id="WeDi0cGP_TiEVpOtjkg3-54" value="&lt;p style=&quot;margin:0px;margin-top:4px;text-align:center;&quot;&gt;&lt;b&gt;ExecuteOrders&lt;/b&gt;&lt;/p&gt;&lt;hr size=&quot;1&quot;/&gt;&lt;p style=&quot;margin:0 0 0 4px;line-height:1.6;&quot;&gt;+ ExecuteOrders(GameEngine): &lt;/p&gt;&lt;hr size=&quot;1&quot;/&gt;&lt;p style=&quot;margin:0 0 0 4px;line-height:1.6;&quot;&gt;+ checkContinentOwnership(): String&lt;br/&gt;+ bomb(String[]): String&lt;br/&gt;+ executeOrders(): String&lt;br/&gt;+ next(): void&lt;br/&gt;+ diplomacy(String[]): String&lt;br/&gt;+ airlift(String[]): String&lt;br/&gt;+ assignArmies(): String&lt;br/&gt;+ deploy(String[]): String&lt;br/&gt;+ advance(String[]): String&lt;br/&gt;+ blockade(String[]): String&lt;br/&gt;+ issueOrders(): String&lt;/p&gt;" style="verticalAlign=top;align=left;overflow=fill;fontSize=14;fontFamily=Helvetica;html=1;rounded=1;shadow=0;comic=0;labelBackgroundColor=none;strokeWidth=1;" vertex="1" parent="1">
          <mxGeometry x="1925" y="866" width="266" height="340" as="geometry" />
        </mxCell>
        <mxCell id="WeDi0cGP_TiEVpOtjkg3-57" style="edgeStyle=orthogonalEdgeStyle;rounded=0;orthogonalLoop=1;jettySize=auto;html=1;exitX=1;exitY=0.5;exitDx=0;exitDy=0;entryX=0;entryY=0.5;entryDx=0;entryDy=0;endArrow=open;endFill=0;" edge="1" parent="1" source="WeDi0cGP_TiEVpOtjkg3-56" target="Ep6wm1nC07nQk0jGkavb-168">
          <mxGeometry relative="1" as="geometry" />
        </mxCell>
        <mxCell id="WeDi0cGP_TiEVpOtjkg3-56" value="&lt;p style=&quot;margin:0px;margin-top:4px;text-align:center;&quot;&gt;&lt;b&gt;Deploy&lt;/b&gt;&lt;/p&gt;&lt;hr size=&quot;1&quot;/&gt;&lt;p style=&quot;margin:0 0 0 4px;line-height:1.6;&quot;&gt;+ Deploy(Player, int, int): &lt;/p&gt;&lt;hr size=&quot;1&quot;/&gt;&lt;p style=&quot;margin:0 0 0 4px;line-height:1.6;&quot;&gt;+ execute(GameEngine): String&lt;/p&gt;" style="verticalAlign=top;align=left;overflow=fill;fontSize=14;fontFamily=Helvetica;html=1;rounded=1;shadow=0;comic=0;labelBackgroundColor=none;strokeWidth=1;" vertex="1" parent="1">
          <mxGeometry x="1040" y="648" width="226" height="93" as="geometry" />
        </mxCell>
        <mxCell id="WeDi0cGP_TiEVpOtjkg3-62" style="edgeStyle=orthogonalEdgeStyle;rounded=0;orthogonalLoop=1;jettySize=auto;html=1;exitX=0.5;exitY=0;exitDx=0;exitDy=0;entryX=1;entryY=0.5;entryDx=0;entryDy=0;endArrow=block;endFill=0;dashed=1;dashPattern=1 4;" edge="1" parent="1" source="WeDi0cGP_TiEVpOtjkg3-58" target="Ep6wm1nC07nQk0jGkavb-168">
          <mxGeometry relative="1" as="geometry" />
        </mxCell>
        <mxCell id="WeDi0cGP_TiEVpOtjkg3-58" value="&lt;p style=&quot;margin:0px;margin-top:4px;text-align:center;&quot;&gt;&lt;b&gt;Advance&lt;/b&gt;&lt;/p&gt;&lt;hr size=&quot;1&quot;/&gt;&lt;p style=&quot;margin:0 0 0 4px;line-height:1.6;&quot;&gt;+ Advance(Player, int, int, int): &lt;/p&gt;&lt;hr size=&quot;1&quot;/&gt;&lt;p style=&quot;margin:0 0 0 4px;line-height:1.6;&quot;&gt;+ execute(GameEngine): String&lt;/p&gt;" style="verticalAlign=top;align=left;overflow=fill;fontSize=14;fontFamily=Helvetica;html=1;rounded=1;shadow=0;comic=0;labelBackgroundColor=none;strokeWidth=1;" vertex="1" parent="1">
          <mxGeometry x="1599" y="1044" width="229" height="116" as="geometry" />
        </mxCell>
        <mxCell id="WeDi0cGP_TiEVpOtjkg3-63" style="edgeStyle=orthogonalEdgeStyle;rounded=0;orthogonalLoop=1;jettySize=auto;html=1;exitX=0.5;exitY=0;exitDx=0;exitDy=0;entryX=0;entryY=0.75;entryDx=0;entryDy=0;endArrow=block;endFill=0;dashed=1;dashPattern=1 4;" edge="1" parent="1" source="WeDi0cGP_TiEVpOtjkg3-59" target="Ep6wm1nC07nQk0jGkavb-168">
          <mxGeometry relative="1" as="geometry">
            <Array as="points">
              <mxPoint x="1147" y="870" />
              <mxPoint x="1326" y="870" />
              <mxPoint x="1326" y="724" />
            </Array>
          </mxGeometry>
        </mxCell>
        <mxCell id="WeDi0cGP_TiEVpOtjkg3-59" value="&lt;p style=&quot;margin:0px;margin-top:4px;text-align:center;&quot;&gt;&lt;b&gt;Diplomacy&lt;/b&gt;&lt;/p&gt;&lt;hr size=&quot;1&quot;/&gt;&lt;p style=&quot;margin:0 0 0 4px;line-height:1.6;&quot;&gt;+ Diplomacy(Player, String): &lt;/p&gt;&lt;hr size=&quot;1&quot;/&gt;&lt;p style=&quot;margin:0 0 0 4px;line-height:1.6;&quot;&gt;+ execute(GameEngine): String&lt;/p&gt;" style="verticalAlign=top;align=left;overflow=fill;fontSize=14;fontFamily=Helvetica;html=1;rounded=1;shadow=0;comic=0;labelBackgroundColor=none;strokeWidth=1;" vertex="1" parent="1">
          <mxGeometry x="1034" y="1019" width="226" height="93" as="geometry" />
        </mxCell>
        <mxCell id="WeDi0cGP_TiEVpOtjkg3-65" style="edgeStyle=orthogonalEdgeStyle;rounded=0;orthogonalLoop=1;jettySize=auto;html=1;exitX=0.5;exitY=1;exitDx=0;exitDy=0;entryX=0.5;entryY=0;entryDx=0;entryDy=0;dashed=1;dashPattern=1 4;endArrow=block;endFill=0;" edge="1" parent="1" source="WeDi0cGP_TiEVpOtjkg3-60" target="Ep6wm1nC07nQk0jGkavb-168">
          <mxGeometry relative="1" as="geometry" />
        </mxCell>
        <mxCell id="WeDi0cGP_TiEVpOtjkg3-60" value="&lt;p style=&quot;margin:0px;margin-top:4px;text-align:center;&quot;&gt;&lt;b&gt;Bomb&lt;/b&gt;&lt;/p&gt;&lt;hr size=&quot;1&quot;/&gt;&lt;p style=&quot;margin:0 0 0 4px;line-height:1.6;&quot;&gt;+ Bomb(Player, int): &lt;/p&gt;&lt;hr size=&quot;1&quot;/&gt;&lt;p style=&quot;margin:0 0 0 4px;line-height:1.6;&quot;&gt;+ execute(GameEngine): String&lt;/p&gt;" style="verticalAlign=top;align=left;overflow=fill;fontSize=14;fontFamily=Helvetica;html=1;rounded=1;shadow=0;comic=0;labelBackgroundColor=none;strokeWidth=1;" vertex="1" parent="1">
          <mxGeometry x="1456" y="523" width="226" height="93" as="geometry" />
        </mxCell>
        <mxCell id="WeDi0cGP_TiEVpOtjkg3-70" style="edgeStyle=orthogonalEdgeStyle;rounded=0;orthogonalLoop=1;jettySize=auto;html=1;exitX=0.5;exitY=0;exitDx=0;exitDy=0;entryX=0;entryY=1;entryDx=0;entryDy=0;endArrow=block;endFill=0;dashed=1;dashPattern=1 2;" edge="1" parent="1" source="WeDi0cGP_TiEVpOtjkg3-61" target="Ep6wm1nC07nQk0jGkavb-168">
          <mxGeometry relative="1" as="geometry">
            <mxPoint x="1378.6471019071691" y="929.293995576746" as="targetPoint" />
            <Array as="points">
              <mxPoint x="1124" y="1150" />
              <mxPoint x="1292" y="1150" />
              <mxPoint x="1292" y="982" />
              <mxPoint x="1376" y="982" />
              <mxPoint x="1376" y="737" />
            </Array>
          </mxGeometry>
        </mxCell>
        <mxCell id="WeDi0cGP_TiEVpOtjkg3-61" value="&lt;p style=&quot;margin:0px;margin-top:4px;text-align:center;&quot;&gt;&lt;b&gt;Blockade&lt;/b&gt;&lt;/p&gt;&lt;hr size=&quot;1&quot;/&gt;&lt;p style=&quot;margin:0 0 0 4px;line-height:1.6;&quot;&gt;+ Blockade(Player, int): &lt;/p&gt;&lt;hr size=&quot;1&quot;/&gt;&lt;p style=&quot;margin:0 0 0 4px;line-height:1.6;&quot;&gt;+ execute(GameEngine): String&lt;/p&gt;" style="verticalAlign=top;align=left;overflow=fill;fontSize=14;fontFamily=Helvetica;html=1;rounded=0;shadow=0;comic=0;labelBackgroundColor=none;strokeWidth=1;" vertex="1" parent="1">
          <mxGeometry x="1011" y="1227" width="226" height="93" as="geometry" />
        </mxCell>
        <mxCell id="WeDi0cGP_TiEVpOtjkg3-66" style="edgeStyle=orthogonalEdgeStyle;rounded=0;orthogonalLoop=1;jettySize=auto;html=1;exitX=0.5;exitY=0;exitDx=0;exitDy=0;entryX=0.864;entryY=0.967;entryDx=0;entryDy=0;entryPerimeter=0;dashed=1;dashPattern=1 2;endArrow=block;endFill=0;" edge="1" parent="1" source="WeDi0cGP_TiEVpOtjkg3-64" target="Ep6wm1nC07nQk0jGkavb-168">
          <mxGeometry relative="1" as="geometry">
            <mxPoint x="1578" y="773" as="targetPoint" />
          </mxGeometry>
        </mxCell>
        <mxCell id="WeDi0cGP_TiEVpOtjkg3-64" value="&lt;p style=&quot;margin:0px;margin-top:4px;text-align:center;&quot;&gt;&lt;b&gt;Airlift&lt;/b&gt;&lt;/p&gt;&lt;hr size=&quot;1&quot;/&gt;&lt;p style=&quot;margin:0 0 0 4px;line-height:1.6;&quot;&gt;+ Airlift(Player, int, int, int): &lt;/p&gt;&lt;hr size=&quot;1&quot;/&gt;&lt;p style=&quot;margin:0 0 0 4px;line-height:1.6;&quot;&gt;+ execute(GameEngine): String&lt;/p&gt;" style="verticalAlign=top;align=left;overflow=fill;fontSize=14;fontFamily=Helvetica;html=1;rounded=1;shadow=0;comic=0;labelBackgroundColor=none;strokeWidth=1;" vertex="1" parent="1">
          <mxGeometry x="1450" y="1253" width="226" height="109" as="geometry" />
        </mxCell>
      </root>
    </mxGraphModel>
  </diagram>
</mxfile>
